{
  "accessors": [
    {
      "bufferView": 0,
      "componentType": 5125,
      "count": 51252,
      "type": "SCALAR"
    },
    {
      "bufferView": 1,
      "componentType": 5126,
      "count": 10398,
      "max": [
        0.04198850770083684,
        0.13276945110123695,
        0.023065396262979043
      ],
      "min": [
        -0.1137597882901753,
        -0.016331923243600333,
        -0.023065396262979047
      ],
      "type": "VEC3"
    },
    {
      "bufferView": 2,
      "componentType": 5126,
      "count": 10398,
      "max": [
        0.9999999774612786,
        0.999997792794918,
        0.9999993489347834
      ],
      "min": [
        -0.9999999986710763,
        -0.9999996077347145,
        -0.9999993489347834
      ],
      "type": "VEC3"
    },
    {
      "bufferView": 3,
      "componentType": 5126,
      "count": 10398,
      "max": [
        0.9838330266194923,
        1.0
      ],
      "min": [
        0.0,
        0.0
      ],
      "type": "VEC2"
    },
    {
      "bufferView": 4,
      "componentType": 5125,
      "count": 49956,
      "type": "SCALAR"
    },
    {
      "bufferView": 5,
      "componentType": 5126,
      "count": 10038,
      "max": [
        0.07810327599461298,
        0.17784378800844847,
        0.011582468608064962
      ],
      "min": [
        0.019692979989308856,
        0.12230137739129976,
        -0.011582468608064962
      ],
      "type": "VEC3"
    },
    {
      "bufferView": 6,
      "componentType": 5126,
      "count": 10038,
      "max": [
        0.9999977715708572,
        0.9999996659485099,
        0.9999976945982415
      ],
      "min": [
        -0.9999998683796996,
        -0.9999999291968572,
        -0.9999976945982415
      ],
      "type": "VEC3"
    },
    {
      "bufferView": 7,
      "componentType": 5126,
      "count": 10038,
      "max": [
        1.0,
        0.9998533664465895
      ],
      "min": [
        0.0,
        0.0
      ],
      "type": "VEC2"
    },
    {
      "bufferView": 8,
      "componentType": 5125,
      "count": 63330,
      "type": "SCALAR"
    },
    {
      "bufferView": 9,
      "componentType": 5126,
      "count": 13765,
      "max": [
        0.17893437563246373,
        0.12280001134327101,
        0.023137120811805446
      ],
      "min": [
        -0.17893437563246373,
        -0.1778437880084489,
        -0.023137120811805446
      ],
      "type": "VEC3"
    },
    {
      "bufferView": 10,
      "componentType": 5126,
      "count": 13765,
      "max": [
        0.9999999996884985,
        0.9999999927448899,
        0.999998469003096
      ],
      "min": [
        -0.9999999999800773,
        -0.9999999990712418,
        -0.999998469003096
      ],
      "type": "VEC3"
    },
    {
      "bufferView": 11,
      "componentType": 5126,
      "count": 13765,
      "max": [
        0.5618556722076333,
        1.0
      ],
      "min": [
        0.0,
        0.0
      ],
      "type": "VEC2"
    }
  ],
  "asset": {
    "generator": "Adobe Illustrator",
    "version": "2.0"
  },
  "bufferViews": [
    {
      "buffer": 0,
      "byteLength": 205008,
      "target": 34963
    },
    {
      "buffer": 0,
      "byteLength": 124776,
      "byteOffset": 205008,
      "target": 34962
    },
    {
      "buffer": 0,
      "byteLength": 124776,
      "byteOffset": 329784,
      "target": 34962
    },
    {
      "buffer": 0,
      "byteLength": 83184,
      "byteOffset": 454560,
      "target": 34962
    },
    {
      "buffer": 0,
      "byteLength": 199824,
      "byteOffset": 537744,
      "target": 34963
    },
    {
      "buffer": 0,
      "byteLength": 120456,
      "byteOffset": 737568,
      "target": 34962
    },
    {
      "buffer": 0,
      "byteLength": 120456,
      "byteOffset": 858024,
      "target": 34962
    },
    {
      "buffer": 0,
      "byteLength": 80304,
      "byteOffset": 978480,
      "target": 34962
    },
    {
      "buffer": 0,
      "byteLength": 253320,
      "byteOffset": 1058784,
      "target": 34963
    },
    {
      "buffer": 0,
      "byteLength": 165180,
      "byteOffset": 1312104,
      "target": 34962
    },
    {
      "buffer": 0,
      "byteLength": 165180,
      "byteOffset": 1477284,
      "target": 34962
    },
    {
      "buffer": 0,
      "byteLength": 110120,
      "byteOffset": 1642464,
      "target": 34962
    }
  ],
  "buffers": [
    {
      "byteLength": 1752584,
      "uri": "data:application/octet-stream;base64,"
    }
  ],
  "materials": [
    {
      "doubleSided": true,
      "pbrMetallicRoughness": {
        "baseColorFactor": [
          0.33984375,
          0.62109375,
          0.3046875,
          1.0
        ],
        "metallicFactor": 0.7644464373588562,
        "roughnessFactor": 0.0
      }
    },
    {
      "doubleSided": true,
      "pbrMetallicRoughness": {
        "baseColorFactor": [
          0.33984375,
          0.62109375,
          0.3046875,
          1.0
        ],
        "metallicFactor": 0.7644464373588562,
        "roughnessFactor": 0.0
      }
    },
    {
      "doubleSided": true,
      "pbrMetallicRoughness": {
        "baseColorFactor": [
          0.33984375,
          0.62109375,
          0.3046875,
          1.0
        ],
        "metallicFactor": 0.7644464373588562,
        "roughnessFactor": 0.0
      }
    }
  ],
  "meshes": [
    {
      "primitives": [
        {
          "attributes": {
            "NORMAL": 2,
            "POSITION": 1,
            "TEXCOORD_0": 3
          },
          "indices": 0,
          "material": 0,
          "mode": 4
        }
      ]
    },
    {
      "primitives": [
        {
          "attributes": {
            "NORMAL": 6,
            "POSITION": 5,
            "TEXCOORD_0": 7
          },
          "indices": 4,
          "material": 1,
          "mode": 4
        }
      ]
    },
    {
      "primitives": [
        {
          "attributes": {
            "NORMAL": 10,
            "POSITION": 9,
            "TEXCOORD_0": 11
          },
          "indices": 8,
          "material": 2,
          "mode": 4
        }
      ]
    }
  ],
  "nodes": [
    {
      "mesh": 0
    },
    {
      "mesh": 1
    },
    {
      "mesh": 2
    }
  ],
  "scenes": [
    {
      "nodes": [
        0,
        1,
        2
      ]
    }
  ]
}
