<?xml version="1.0" standalone="no"?>
<!DOCTYPE svg PUBLIC "-//W3C//DTD SVG 20010904//EN"
 "http://www.w3.org/TR/2001/REC-SVG-20010904/DTD/svg10.dtd">
<svg version="1.0" xmlns="http://www.w3.org/2000/svg"
 width="294.000000pt" height="288.000000pt" viewBox="0 0 294.000000 288.000000"
 preserveAspectRatio="xMidYMid meet">

<g transform="translate(0.000000,288.000000) scale(0.100000,-0.100000)"
fill="#000000" stroke="none">
<path d="M1550 2813 c-36 -7 -97 -29 -136 -48 -76 -37 -92 -39 -194 -29 -47 5
-59 9 -45 15 12 4 -17 8 -72 8 -106 1 -167 -17 -232 -68 -46 -37 -100 -61
-135 -61 -79 0 -127 -21 -198 -88 -134 -127 -213 -258 -286 -477 -51 -154 -57
-179 -87 -360 -58 -356 -56 -519 12 -729 61 -191 90 -243 209 -365 57 -60 139
-133 182 -162 42 -28 86 -60 97 -70 19 -17 28 -18 122 -5 56 7 109 19 118 26
8 7 15 9 15 4 0 -5 4 -3 8 4 6 9 15 10 33 3 13 -5 20 -10 14 -11 -17 -1 88
-59 138 -76 30 -10 65 -33 92 -61 38 -38 43 -48 34 -64 -19 -36 -103 -54 -169
-37 -50 13 -89 31 -85 38 2 4 -1 7 -8 7 -7 0 -32 10 -56 21 -54 27 -62 23 -20
-9 18 -13 41 -32 53 -43 49 -43 131 -99 169 -116 32 -14 71 -18 162 -19 66 -1
148 -6 183 -12 137 -21 286 18 527 139 66 33 152 71 192 86 121 43 174 75 269
165 50 47 109 99 133 114 53 37 76 83 101 204 26 128 74 355 99 468 83 372 97
517 63 652 -62 245 -207 406 -615 683 -60 40 -111 79 -114 87 -3 7 -9 11 -14
8 -4 -3 -16 6 -25 20 -9 13 -20 23 -24 20 -5 -3 -18 7 -30 22 -12 16 -19 21
-15 13 4 -8 -3 -4 -14 9 -12 13 -21 19 -21 15 0 -5 -6 -2 -13 6 -7 8 -17 16
-22 17 -19 4 -80 25 -110 39 -27 12 -150 31 -200 31 -11 0 -49 -6 -85 -14z
m402 -244 c18 -13 96 -73 173 -134 77 -61 210 -163 296 -227 230 -172 325
-285 364 -433 27 -105 19 -192 -45 -460 -43 -179 -68 -303 -96 -475 -39 -242
-49 -268 -128 -317 -22 -14 -74 -59 -113 -99 -54 -54 -82 -75 -108 -80 -20 -3
-38 -5 -40 -3 -2 2 26 38 62 79 82 93 108 149 128 270 20 127 19 216 -5 329
-27 126 -25 160 12 298 27 101 32 135 32 233 0 160 -18 201 -193 452 -171 244
-267 312 -399 279 -109 -28 -128 -37 -172 -81 -59 -58 -143 -198 -182 -303
-28 -74 -31 -93 -32 -202 0 -132 11 -179 66 -269 37 -62 34 -104 -14 -153 -27
-28 -37 -33 -63 -27 -120 25 -185 170 -185 413 0 133 18 237 60 361 47 134 79
186 205 325 20 22 46 60 57 85 29 67 63 107 121 141 46 26 59 30 109 26 38 -3
68 -13 90 -28z m-912 -77 c25 -14 67 -40 93 -59 27 -19 61 -39 75 -45 38 -15
145 -37 154 -32 17 11 17 -19 -1 -73 -11 -32 -27 -92 -36 -133 -70 -310 -75
-377 -50 -637 21 -221 16 -258 -39 -292 -45 -28 -122 -51 -171 -51 -40 0 -117
29 -129 48 -11 19 14 64 57 101 127 109 143 145 132 293 -4 51 -13 125 -20
164 -7 39 -14 140 -14 225 -1 84 -6 171 -12 193 -16 58 -53 111 -101 144 -54
37 -75 43 -154 48 -34 1 -78 11 -96 20 l-32 17 29 23 c44 35 161 73 220 72 32
-1 66 -11 95 -26z m-395 -72 c4 -6 -4 -25 -18 -43 -56 -74 -93 -177 -142 -395
-63 -284 -72 -576 -22 -772 27 -104 27 -182 3 -263 -18 -62 -63 -137 -81 -137
-15 0 -67 76 -104 152 -73 152 -67 445 17 898 36 192 125 409 199 488 7 7 18
21 25 30 30 41 107 67 123 42z m94 -49 c11 -7 10 -15 -8 -44 -25 -41 -26 -58
-6 -96 16 -32 38 -40 75 -31 14 3 35 4 48 2 38 -7 21 -34 -32 -51 -34 -11 -59
-28 -79 -53 -27 -34 -31 -48 -39 -145 -6 -60 -11 -200 -11 -313 -2 -237 0
-245 96 -341 29 -30 63 -74 75 -99 21 -43 56 -70 92 -70 9 0 25 -6 35 -14 19
-14 19 -15 2 -34 -10 -11 -53 -40 -95 -65 -137 -79 -242 -193 -242 -263 0 -32
91 -222 131 -273 23 -29 25 -79 4 -87 -54 -21 -135 34 -204 137 -73 110 -76
210 -11 409 16 52 30 109 30 126 0 19 -18 66 -41 110 -68 128 -81 174 -86 317
-7 165 16 354 71 587 46 195 77 263 129 285 38 17 47 18 66 6z m89 -51 c19
-12 32 -28 32 -40 0 -23 -12 -25 -43 -9 -27 14 -37 28 -37 52 0 22 8 21 48 -3z
m120 -16 c28 -19 28 -30 -2 -49 -32 -21 -53 -10 -58 31 -3 29 -1 34 17 34 11
0 31 -7 43 -16z m1113 -94 c44 -29 75 -71 171 -235 23 -38 63 -97 89 -131 109
-141 139 -265 97 -404 -6 -19 -39 -95 -75 -167 -64 -132 -64 -133 -98 -133
-74 0 -301 66 -334 96 -42 39 -29 50 160 137 110 51 172 111 202 193 22 64 22
96 -4 146 -52 101 -179 176 -312 184 -32 2 -63 6 -68 9 -14 10 -11 35 6 35 20
0 87 38 101 59 7 9 16 38 19 64 6 40 3 57 -19 101 -14 29 -26 58 -26 64 0 22
46 12 91 -18z m-215 -21 c-3 -17 -28 -57 -54 -88 -69 -80 -76 -97 -11 -27 63
68 78 92 79 124 0 26 1 26 35 10 14 -6 25 -17 25 -24 0 -8 -29 -36 -65 -64
-140 -111 -152 -247 -25 -303 44 -20 47 -24 35 -41 -16 -21 -135 -40 -140 -22
-14 50 -25 108 -28 146 -2 25 -4 7 -5 -40 -2 -92 -17 -130 -53 -130 -18 0 -19
5 -15 45 13 105 56 235 102 300 19 28 48 71 66 98 37 56 64 64 54 16z m-941
-9 c3 -5 -1 -10 -9 -10 -9 0 -16 5 -16 10 0 6 4 10 9 10 6 0 13 -4 16 -10z
m55 -75 c10 -12 8 -24 -9 -64 -11 -28 -21 -60 -21 -73 0 -13 18 -95 40 -183
22 -87 40 -165 40 -172 0 -7 -9 -22 -20 -33 -23 -23 -90 -28 -90 -7 0 6 -7 73
-15 147 -8 74 -17 151 -19 170 -5 47 13 202 26 218 14 17 53 15 68 -3z m-108
-29 c5 -6 5 -42 2 -81 -4 -38 -1 -137 6 -218 12 -155 6 -207 -26 -207 -27 0
-33 47 -36 287 l-3 239 25 -4 c14 -3 28 -10 32 -16z m1117 -306 c23 0 73 -39
66 -50 -5 -8 -99 19 -126 36 -15 9 11 26 29 19 8 -3 22 -5 31 -5z m161 -10
c21 -11 41 -24 44 -28 8 -14 -40 -54 -60 -50 -13 2 -64 77 -64 95 0 10 46 0
80 -17z m-350 -681 c0 -6 -13 -27 -30 -46 -16 -18 -30 -39 -30 -44 0 -6 9 -1
19 12 l19 24 -8 -45 c-10 -52 -4 -105 15 -120 9 -8 21 -4 44 16 41 34 61 26
61 -24 0 -41 -14 -62 -42 -62 -29 0 -67 -22 -74 -43 -4 -13 1 -27 15 -40 19
-19 24 -20 57 -8 44 16 56 4 43 -42 -19 -67 -80 -92 -99 -41 -6 15 -19 38 -30
52 -27 34 -25 78 5 114 25 29 34 68 16 68 -23 0 -41 34 -43 78 -1 46 -1 47 -5
8 -3 -24 2 -55 13 -78 16 -36 16 -40 -1 -77 -17 -38 -17 -52 1 -138 5 -29 4
-33 -14 -33 -31 0 -50 69 -41 150 4 36 10 97 13 135 10 120 18 157 37 176 21
21 59 26 59 8z m88 1 c14 0 16 -36 2 -45 -6 -4 -23 -4 -39 0 -24 5 -27 10 -23
31 4 20 9 24 26 20 11 -3 27 -6 34 -6z m-398 -39 c0 -10 -7 -24 -16 -31 -8 -8
-20 -23 -25 -34 -10 -21 -10 -21 6 -1 16 19 16 18 8 -20 -15 -73 -7 -198 15
-249 25 -55 44 -65 83 -42 35 21 42 10 31 -44 -8 -37 -38 -60 -79 -60 -17 0
-23 6 -23 23 0 13 -12 39 -26 58 -15 19 -23 25 -19 14 16 -37 11 -88 -7 -90
-9 -2 -20 4 -24 13 -13 32 -16 285 -4 347 6 33 13 71 16 85 8 43 64 70 64 31z
m96 8 c24 -6 44 -15 44 -19 0 -19 -13 -40 -25 -40 -17 0 -77 31 -87 45 -21 28
-2 31 68 14z m505 -23 c-30 -48 -26 -50 15 -9 l36 36 42 -22 41 -21 -46 5
c-35 5 -51 2 -63 -10 -18 -18 -16 -23 31 -82 45 -55 56 -98 43 -159 -18 -81
-85 -164 -131 -164 -35 0 -13 37 37 63 17 9 37 24 44 34 12 15 12 16 0 6 -26
-24 -30 -13 -10 24 22 42 25 72 11 121 -7 24 -7 31 2 26 7 -3 1 4 -13 15 -14
11 -28 21 -32 21 -4 0 -10 9 -13 21 -5 15 -10 18 -20 9 -10 -9 -16 -7 -24 9
-14 26 -14 35 3 76 12 27 21 35 41 35 l27 0 -21 -34z m-957 -8 c-16 -18 -22
-27 -14 -20 24 21 30 13 14 -23 -17 -41 -18 -81 -3 -90 18 -12 27 -49 17 -71
-7 -15 -5 -45 6 -98 16 -76 11 -115 -14 -131 -17 -10 -19 -5 -29 71 l-8 69 -2
-62 c0 -35 -5 -63 -11 -63 -5 0 -10 3 -11 8 0 4 -3 16 -5 27 -13 55 -16 294
-4 331 19 62 37 84 67 84 l27 0 -30 -32z m91 18 c18 -8 40 -27 48 -43 51 -99
57 -403 8 -403 -4 0 -11 44 -15 98 -4 53 -11 122 -16 152 -9 55 -9 55 -4 -15
2 -38 7 -96 10 -127 7 -64 -1 -103 -16 -78 -5 8 -12 44 -15 80 -8 78 -21 117
-46 131 -23 12 -25 29 -4 29 22 0 55 59 55 98 0 23 4 31 13 27 6 -4 3 1 -8 10
-11 9 -30 18 -42 22 -23 5 -29 14 -16 26 8 9 8 9 48 -7z m465 -39 c0 -7 -12
-67 -27 -135 -24 -108 -26 -128 -15 -167 7 -25 12 -62 12 -83 -1 -36 -1 -36
-14 -13 -10 18 -15 20 -19 10 -3 -8 -5 8 -5 35 1 31 -3 51 -10 54 -37 12 -44
34 -37 116 6 79 7 82 48 118 23 20 37 37 30 38 -6 0 -9 8 -6 18 5 20 43 28 43
9z m260 -1 c0 -8 -4 -26 -9 -39 -8 -20 -4 -37 19 -84 43 -86 36 -136 -17 -116
-12 5 -14 3 -8 -7 6 -10 4 -12 -8 -7 -10 3 -17 2 -17 -4 0 -6 -5 -7 -10 -4 -6
4 -31 7 -55 7 -25 0 -45 4 -45 9 0 15 47 21 69 9 47 -24 78 27 59 99 -12 46
-53 81 -95 81 -29 0 -33 3 -33 26 0 24 3 25 28 18 41 -11 72 -8 90 10 20 20
32 20 32 2z m-745 -43 c-8 -20 -15 -37 -15 -39 0 -2 -5 -4 -10 -4 -6 0 -8 12
-5 28 l5 27 -11 -27 c-12 -32 -33 -38 -25 -8 3 11 8 29 11 39 6 20 30 31 52
23 10 -3 9 -12 -2 -39z m794 3 c11 -43 49 -86 77 -86 40 0 58 -75 28 -118 -18
-26 -62 -27 -74 -2 -4 8 -24 48 -44 88 -36 73 -41 97 -30 140 10 36 31 25 43
-22z m-1009 27 c0 -4 -25 -30 -57 -59 -53 -50 -56 -55 -61 -108 -4 -51 -3 -56
16 -56 12 0 19 6 18 16 0 9 14 27 32 41 30 24 32 24 32 6 0 -10 -16 -35 -36
-54 l-35 -34 6 -76 c7 -74 -3 -119 -24 -119 -5 0 -14 44 -21 98 -7 53 -17 106
-22 117 -6 14 -7 10 -3 -15 3 -19 8 -69 12 -110 8 -100 -10 -83 -31 29 -19 98
-20 154 -5 184 23 45 125 129 177 146 1 1 2 -2 2 -6z m44 -222 c-1 -261 -1
-251 -18 -251 -19 0 -26 21 -28 83 l-1 52 -6 -55 c-7 -67 -24 -68 -33 -3 -3
26 -10 69 -14 95 -5 39 -4 49 10 54 23 9 46 69 50 129 2 43 1 46 -8 23 -7 -19
-17 -28 -32 -28 -12 0 -34 -12 -49 -27 l-27 -28 14 32 c7 18 29 43 48 55 19
13 39 32 45 43 18 35 24 42 37 42 10 0 13 -46 12 -216z m1116 209 c0 -5 -2
-10 -4 -10 -3 0 -8 5 -11 10 -3 6 -1 10 4 10 6 0 11 -4 11 -10z m-770 -159 c0
-145 -10 -271 -21 -271 -5 0 -9 19 -9 43 0 23 -4 37 -8 30 -4 -6 -7 51 -7 128
0 76 3 139 8 139 4 0 7 11 7 23 0 13 3 27 6 30 18 17 24 -14 24 -122z m178 7
c-5 -68 -22 -93 -43 -64 -18 24 -29 114 -20 157 l7 33 30 -33 c28 -31 30 -39
26 -93z m864 -34 c0 -164 -41 -264 -147 -365 -63 -60 -175 -90 -205 -54 -18
22 -8 38 57 92 118 96 166 178 181 305 8 65 41 126 70 127 6 1 12 7 12 13 0 7
7 2 16 -11 13 -17 17 -45 16 -107z m-1238 20 c10 -26 29 -205 22 -211 -3 -4
-6 1 -6 10 0 9 -5 17 -11 17 -7 0 -10 18 -7 50 1 28 0 51 -4 53 -11 4 -21 97
-10 97 5 0 13 -7 16 -16z m833 -177 c-6 -19 -36 -32 -47 -21 -16 16 -21 56 -8
72 10 12 16 10 36 -13 12 -15 21 -32 19 -38z m-87 18 c0 -19 -4 -35 -9 -35
-13 0 -18 20 -13 47 7 36 22 27 22 -12z m143 -341 c42 -2 78 -7 80 -11 3 -12
-233 -127 -310 -151 -96 -29 -183 -33 -183 -8 0 15 85 90 145 127 60 37 126
59 160 53 17 -4 65 -8 108 -10z"/>
<path d="M1403 810 c0 -47 2 -66 4 -42 2 23 2 61 0 85 -2 23 -4 4 -4 -43z"/>
<path d="M2142 820 c0 -14 2 -19 5 -12 2 6 2 18 0 25 -3 6 -5 1 -5 -13z"/>
<path d="M2141 764 c0 -11 3 -14 6 -6 3 7 2 16 -1 19 -3 4 -6 -2 -5 -13z"/>
<path d="M1061 904 c0 -11 3 -14 6 -6 3 7 2 16 -1 19 -3 4 -6 -2 -5 -13z"/>
<path d="M1074 797 l-2 -72 10 58 c5 31 5 63 1 71 -5 8 -9 -16 -9 -57z"/>
<path d="M1232 925 c0 -16 2 -22 5 -12 2 9 2 23 0 30 -3 6 -5 -1 -5 -18z"/>
<path d="M899 933 l-24 -28 28 24 c25 23 32 31 24 31 -2 0 -14 -12 -28 -27z"/>
<path d="M825 859 c-4 -6 -5 -12 -2 -15 2 -3 7 2 10 11 7 17 1 20 -8 4z"/>
<path d="M811 814 c0 -11 3 -14 6 -6 3 7 2 16 -1 19 -3 4 -6 -2 -5 -13z"/>
<path d="M985 939 c-4 -6 -5 -12 -2 -15 2 -3 7 2 10 11 7 17 1 20 -8 4z"/>
<path d="M966 755 c-3 -9 -6 -24 -5 -33 0 -9 5 -4 10 12 9 32 6 48 -5 21z"/>
<path d="M952 680 c0 -14 2 -19 5 -12 2 6 2 18 0 25 -3 6 -5 1 -5 -13z"/>
<path d="M1334 745 c0 -60 1 -84 3 -52 2 32 2 81 0 110 -2 29 -3 3 -3 -58z"/>
</g>
</svg>
